<svg xmlns="http://www.w3.org/2000/svg" xmlns:svgjs="http://svgjs.com/svgjs" xmlns:xlink="http://www.w3.org/1999/xlink" width="288" height="288"><svg xmlns="http://www.w3.org/2000/svg" width="288" height="288" viewBox="0 0 64 64"><path fill="#fd5538" d="M59.28 3H45.72A1.72 1.72 0 0 0 44 4.72v12.2L47.65 14h11.63A1.72 1.72 0 0 0 61 12.28V4.72A1.72 1.72 0 0 0 59.28 3ZM55 30H9a2 2 0 0 0-2 2 2 2 0 0 0 2 2h46a2 2 0 0 0 2-2 2 2 0 0 0-2-2Zm-44 6v18h32a8 8 0 0 1 8-8 7.73 7.73 0 0 1 1 .06h.3a5.86 5.86 0 0 1 .63.12h.11V36Zm42.57 12.58A6 6 0 0 0 45 54a4.83 4.83 0 0 0 .06.82A6 6 0 0 0 57 54a5.94 5.94 0 0 0-3.43-5.42ZM50 57.41l-3.71-3.7 1.42-1.42 2.29 2.3 4.29-4.3 1.42 1.42Zm-18-38.3A9.9 9.9 0 0 0 22.16 28h19.68A9.9 9.9 0 0 0 32 19.11ZM32 7a5 5 0 1 0 5 5 5 5 0 0 0-5-5Z" class="color000 svgShape" data-name="7-Financial Service"/></svg></svg>