<svg xmlns="http://www.w3.org/2000/svg" xmlns:svgjs="http://svgjs.com/svgjs" xmlns:xlink="http://www.w3.org/1999/xlink" width="288" height="288"><svg xmlns="http://www.w3.org/2000/svg" width="288" height="288" viewBox="0 0 24 24"><g fill="#fd5538" class="color000 svgShape" data-name="Layer 2"><g class="color000 svgShape" data-name="message-square"><circle cx="12" cy="11" r="1" class="color000 svgShape"/><circle cx="16" cy="11" r="1" class="color000 svgShape"/><circle cx="8" cy="11" r="1" class="color000 svgShape"/><path d="M19 3H5a3 3 0 0 0-3 3v15a1 1 0 0 0 .51.87A1 1 0 0 0 3 22a1 1 0 0 0 .51-.14L8 19.14a1 1 0 0 1 .55-.14H19a3 3 0 0 0 3-3V6a3 3 0 0 0-3-3zm1 13a1 1 0 0 1-1 1H8.55a3 3 0 0 0-1.55.43l-3 1.8V6a1 1 0 0 1 1-1h14a1 1 0 0 1 1 1z" class="color000 svgShape"/></g></g></svg></svg>