<svg xmlns="http://www.w3.org/2000/svg" xmlns:svgjs="http://svgjs.com/svgjs" xmlns:xlink="http://www.w3.org/1999/xlink" width="288" height="288"><svg xmlns="http://www.w3.org/2000/svg" width="288" height="288" enable-background="new 0 0 512 512" viewBox="0 0 512 512"><path fill="#fd5538" d="M17.707 401.459h.004 290.483.004c8.271 0 14.999-6.728 14.999-14.999 0-8.267-6.728-14.995-14.999-14.995H17.707c-8.522 0-14.999 6.968-14.999 14.995C2.708 394.731 9.436 401.459 17.707 401.459zM11.44 363.15c34.69.007 268.34 0 303.03 0 4.812 0 8.711-3.899 8.711-8.71s-3.899-8.752-8.711-8.752H11.44c-4.811 0-8.75 3.941-8.75 8.752S6.629 363.15 11.44 363.15zM15.73 332.872c1.931 2.226 4.39 3.716 7.105 4.522h280.248c2.714-.805 5.173-2.296 7.104-4.522 2.933-3.382 4.249-7.878 3.609-12.342-4.678-32.755-19.584-62.502-43.105-86.023-28.758-28.787-67.02-44.641-107.73-44.641-75.367 0-140.215 56.172-150.84 130.664C11.481 324.993 12.798 329.49 15.73 332.872zM272.29 295.798c3.187 0 5.758 2.611 5.758 5.758 0 3.186-2.571 5.758-5.758 5.758-3.187 0-5.758-2.572-5.758-5.758C266.532 298.408 269.103 295.798 272.29 295.798zM232.934 241.865c3.186 0 5.757 2.61 5.757 5.758 0 3.186-2.571 5.758-5.757 5.758-3.187 0-5.758-2.572-5.758-5.758C227.176 244.475 229.747 241.865 232.934 241.865zM219.203 311.476c3.186 0 5.758 2.61 5.758 5.757 0 3.187-2.572 5.758-5.758 5.758-3.187 0-5.758-2.571-5.758-5.758C213.445 314.085 216.016 311.476 219.203 311.476zM178.452 229.74c3.186 0 5.758 2.61 5.758 5.757 0 3.186-2.572 5.758-5.758 5.758-3.187 0-5.758-2.572-5.758-5.758C172.694 232.35 175.265 229.74 178.452 229.74zM160.169 195.888c3.186 0 5.757 2.611 5.757 5.758 0 3.186-2.571 5.758-5.757 5.758-3.187 0-5.758-2.572-5.758-5.758C154.411 198.499 156.983 195.888 160.169 195.888zM157.195 266.628c3.186 0 5.758 2.611 5.758 5.758 0 3.186-2.572 5.758-5.758 5.758-3.187 0-5.758-2.572-5.758-5.758C151.437 269.239 154.008 266.628 157.195 266.628zM140.807 311.476c3.186 0 5.758 2.61 5.758 5.757 0 3.187-2.572 5.758-5.758 5.758-3.187 0-5.758-2.571-5.758-5.758C135.049 314.085 137.621 311.476 140.807 311.476zM107.272 292.254c0 3.186-2.572 5.758-5.758 5.758-3.187 0-5.758-2.572-5.758-5.758 0-3.147 2.571-5.758 5.758-5.758C104.7 286.496 107.272 289.107 107.272 292.254zM95.756 218.224c3.186 0 5.758 2.61 5.758 5.758 0 3.186-2.572 5.758-5.758 5.758-3.187 0-5.758-2.572-5.758-5.758C89.998 220.834 92.57 218.224 95.756 218.224zM62.279 266.628c3.187 0 5.758 2.611 5.758 5.758 0 3.186-2.571 5.758-5.758 5.758-3.186 0-5.758-2.572-5.758-5.758C56.521 269.239 59.093 266.628 62.279 266.628zM33.494 314.955c3.187 0 5.758 2.611 5.758 5.758 0 3.186-2.571 5.758-5.758 5.758-3.186 0-5.758-2.572-5.758-5.758C27.736 317.566 30.308 314.955 33.494 314.955zM313.971 478.746v-11.282c-2.599 1.049-5.385 1.723-8.308 1.905-10.248.672-19.88-4.29-25.284-12.981-5.043 8.084-13.917 13.046-23.489 13.046-9.579 0-18.446-4.97-23.48-13.066-5.003 8.088-13.873 13.066-23.472 13.066-9.58 0-18.454-4.97-23.493-13.058-8.56 13.753-33.376 21.867-46.977-.008-4.998 8.088-13.873 13.066-23.473 13.066-9.579 0-18.454-4.97-23.493-13.058-5.034 8.088-13.909 13.058-23.489 13.058-9.596 0-18.462-4.974-23.472-13.066-5.019 8.084-13.893 13.066-23.484 13.066-3.575 0-6.981-.704-10.119-1.942v11.255c0 7.965 6.512 14.476 14.476 14.476h273.083C307.46 493.222 313.971 486.71 313.971 478.746zM42.669 485.344c-3.186 0-5.758-2.572-5.758-5.758 0-3.148 2.572-5.758 5.758-5.758 3.187 0 5.758 2.61 5.758 5.758C48.427 482.772 45.856 485.344 42.669 485.344zM111.005 485.344c-3.186 0-5.758-2.572-5.758-5.758 0-3.148 2.572-5.758 5.758-5.758s5.758 2.61 5.758 5.758C116.763 482.772 114.191 485.344 111.005 485.344zM278.047 485.344c-3.187 0-5.758-2.572-5.758-5.758 0-3.148 2.571-5.758 5.758-5.758s5.758 2.61 5.758 5.758C283.805 482.772 281.234 485.344 278.047 485.344zM509.441 86.405l-11.917-25.81c-1.308-2.833-4.143-4.646-7.263-4.646H203.597c-3.12 0-5.956 1.814-7.263 4.647l-11.914 25.81c-2.447 5.301 1.425 11.353 7.263 11.353h310.495C508.017 97.759 511.889 91.706 509.441 86.405z" class="color000 svgShape"/><path fill="#fd5538" d="M323.194 441.015v-16.266c0-8.267-6.728-14.995-14.999-14.995H17.711c-8.271 0-14.999 6.728-14.999 14.995v17.072c0 10.653 8.68 19.316 19.346 19.316 7.044 0 13.54-3.843 16.951-10.032 1.349-2.398 3.844-3.868 6.534-3.868.004 0 .012 0 .016 0 2.698.008 5.197 1.499 6.526 3.889 3.402 6.181 9.883 10.012 16.931 10.012 7.04 0 13.537-3.835 16.956-10.008 1.329-2.398 3.831-3.889 6.537-3.889 2.702 0 5.205 1.491 6.534 3.889 3.419 6.173 9.916 10.008 16.955 10.008 7.048 0 13.529-3.831 16.923-9.996 1.337-2.406 3.836-3.897 6.534-3.905.004 0 .012 0 .016 0 2.69 0 5.18 1.47 6.516 3.84 3.427 6.218 9.924 10.061 16.968 10.061 7.039 0 13.536-3.835 16.955-10.008 1.333-2.402 3.84-3.889 6.538-3.889s5.205 1.487 6.534 3.885c3.423 6.177 9.919 10.012 16.959 10.012 7.048 0 13.528-3.831 16.922-9.996 1.337-2.41 3.84-3.901 6.538-3.905.004 0 .008 0 .012 0 2.69 0 5.185 1.474 6.513 3.844 3.427 6.214 9.924 10.057 16.967 10.057 7.04 0 13.537-3.835 16.959-10.008 1.333-2.402 3.836-3.893 6.542-3.893.004 0 .008 0 .008 0 2.698.004 5.185 1.491 6.497 3.872 3.67 6.635 10.673 10.518 18.244 9.98C315.267 460.457 323.194 451.644 323.194 441.015zM466.273 18.778H227.586c-4.93 0-8.944 4.014-8.944 8.947v19.916h256.573V27.725C475.216 22.792 471.201 18.778 466.273 18.778zM323.345 461.13c-.32.4-.72.72-1.08 1.08v-1.08H323.345z" class="color000 svgShape"/><path fill="#fd5538" d="M491.464,106.054l-31.92,348.092c-0.566,6.177-5.747,10.904-11.95,10.904h-10.41v16.16c0,6.627-5.373,12-12,12H317.066c3.239-3.92,5.199-8.96,5.199-14.48V462.21c0.36-0.36,0.76-0.68,1.08-1.08c5.04-5.12,8.16-12.28,8.16-20.12v-16.28c0-7.92-4-14.92-10.08-19.12c6.08-4.2,10.08-11.239,10.08-19.159c0-7.041-3.16-13.32-8.12-17.6c4.84-3,8.08-8.319,8.08-14.399c0-8.56-6.319-15.6-14.479-16.801c4.119-5.119,5.96-11.72,5.039-18.279c-4.959-34.56-20.679-65.92-45.479-90.72c-18.88-18.92-41.719-32.559-66.599-40.119l-7.56-82.479H491.464z" class="color000 svgShape"/></svg></svg>