<svg xmlns="http://www.w3.org/2000/svg" xmlns:svgjs="http://svgjs.com/svgjs" xmlns:xlink="http://www.w3.org/1999/xlink" width="288" height="288"><svg xmlns="http://www.w3.org/2000/svg" width="288" height="288" viewBox="0 0 64 64"><path fill="#ffc7ab" d="M39 15v24a2.006 2.006 0 0 1-2 2H5a2.006 2.006 0 0 1-2-2V15Z" class="color5aaae7 svgShape"/><path fill="#e2743d" d="M39 16.92V39a2.006 2.006 0 0 1-2 2H13.54C22.21 35.27 31.92 27.26 39 16.92Z" class="color3d9ae2 svgShape"/><path fill="#ff6c23" d="M37 7H5a2.006 2.006 0 0 0-2 2v6h36V9a2.006 2.006 0 0 0-2-2Z" class="colorff5023 svgShape"/><path fill="#e2743d" d="M53 49.01a1 1 0 0 1-1-1l.01-3a1 1 0 0 1 1-1h2.37l-3.37-3H48V49H29v5.99a2 2 0 0 0 1.99 2H33V57h23.989v.01h2a2.014 2.014 0 0 0 2.01-2v-6Z" class="color3d9ae2 svgShape"/><path fill="#ffece3" d="M61 49.01h-8a1 1 0 0 1-1-1l.01-3a1 1 0 0 1 1-1h2.37Z" class="colore6e7e8 svgShape"/><path fill="#5d5b5a" d="M53 53.01A4 4 0 1 1 48.99 57 3.984 3.984 0 0 1 53 53.01zm-15-.02a4 4 0 1 1-4.01 4 4 4 0 0 1 4.01-4z" class="color57565c svgShape"/><path fill="#ff925c" d="M39 31H29v18h19V31h-9z" class="colorff9811 svgShape"/><path fill="#c40" d="M35 17v9a1 1 0 0 0 1 1h12a1 1 0 0 0 1-1v-9Z" class="color00ccb3 svgShape"/><path fill="#ed621c" d="M47 11H37l-3 4h16l-3-4z" class="colored1c24 svgShape"/><path fill="#e2743d" d="m23 27-1.65 7.43A2.007 2.007 0 0 1 19.4 36h-6.8a2.007 2.007 0 0 1-1.95-1.57L9 27h14Z" class="color3d9ae2 svgShape"/><path fill="#ff6c23" d="M39 15h-5v2a2 2 0 0 0 4 0 2 2 0 0 0 4 0 2 2 0 0 0 4 0 2 2 0 0 0 4 0v-2Z" class="colorff5023 svgShape"/><path fill="#ffece3" d="M40 23h4v4h-4z" class="colore6e7e8 svgShape"/><path fill="#ff925c" d="m21 25-1.65 7.43A2.007 2.007 0 0 1 17.4 34h-6.8a2.007 2.007 0 0 1-1.95-1.57L7 25h14Z" class="colorff9811 svgShape"/><path d="M6 10h2v2H6zM10 10h2v2h-2zM14 10h2v2h-2zM18 56h8v2h-8zM14 56h2v2h-2zM20 52h6v2h-6zM22 48h4v2h-4zM16 52h2v2h-2zM51.995 56.006h2v2h-2zM36.995 55.994h2v2h-2z" class="color000 svgShape"/><path d="m61.665 48.263-8.99-8a1 1 0 0 0-.665-.253H49v-5.536A17.024 17.024 0 0 0 58.8 21.5l1.011 1.2 1.531-1.285-2.571-3.065a1 1 0 0 0-1.409-.123l-3.064 2.572 1.285 1.531 1.217-1.021A15.023 15.023 0 0 1 49 32.257V31a1 1 0 0 0-1-1h-8v-2h8a2 2 0 0 0 2-2v-6.78A2.985 2.985 0 0 0 51 17v-2a1 1 0 0 0-.2-.6l-3-4a1 1 0 0 0-.8-.4h-7V9a3 3 0 0 0-3-3h-2.452a14.973 14.973 0 0 1 21.995 9.312l1.939-.491A16.984 16.984 0 0 0 31.068 6H5a3 3 0 0 0-3 3v30a3 3 0 0 0 3 3h23v12.99a3 3 0 0 0 2.99 3h2.11a5.008 5.008 0 0 0 4.9 4 5.007 5.007 0 0 0 4.9-4h5.2a5.006 5.006 0 0 0 4.894 4 5.008 5.008 0 0 0 4.9-4h1.1a3.009 3.009 0 0 0 3.01-3v-6a1 1 0 0 0-.339-.727Zm-8.657-3.253H55l3.372 3H53ZM47 48H30V32h1.059A16.967 16.967 0 0 0 47 35.247Zm0-14.875A14.863 14.863 0 0 1 34.529 32H47ZM43 26h-2v-2h2Zm5 0h-3v-3a1 1 0 0 0-1-1h-4a1 1 0 0 0-1 1v3h-3v-6a2.981 2.981 0 0 0 2-.78 2.954 2.954 0 0 0 4 0 2.954 2.954 0 0 0 4 0 2.981 2.981 0 0 0 2 .78Zm0-8a1 1 0 0 1-1-1h-2a1 1 0 0 1-2 0h-2a1 1 0 0 1-2 0h-2a1 1 0 0 1-2 0v-1h14v1a1 1 0 0 1-1 1Zm0-4H36l1.5-2h9ZM5 40a1 1 0 0 1-1-1V16h17v-2H4V9a1 1 0 0 1 1-1h24.062a16.919 16.919 0 0 0-3.857 8.5l-1.01-1.2-1.532 1.285 2.571 3.065a1 1 0 0 0 .679.353A.844.844 0 0 0 26 20a1 1 0 0 0 .643-.234l3.064-2.572-1.286-1.531L27.2 16.69A14.962 14.962 0 0 1 31.836 8H37a1 1 0 0 1 1 1v1h-1a1 1 0 0 0-.8.4l-3 4a1 1 0 0 0-.2.6v2a2.985 2.985 0 0 0 1 2.22V26a2 2 0 0 0 2 2h2v2h-6.2a14.945 14.945 0 0 1-4.328-7.249l-1.936.5A16.9 16.9 0 0 0 29.048 30H29a1 1 0 0 0-1 1v9Zm35.114 19.117a2.977 2.977 0 0 1-2.119.877 3 3 0 0 1 0-6 3 3 0 0 1 2.117 5.123Zm15 .012a2.981 2.981 0 0 1-2.114.877 3 3 0 0 1 0-6 3 3 0 0 1 2.117 5.123Zm3.876-3.119H57.9a5.01 5.01 0 0 0-4.9-4h-.005a5.007 5.007 0 0 0-4.9 4h-5.2a5.009 5.009 0 0 0-4.9-4h-.005a5.008 5.008 0 0 0-4.9 4h-2.1a1 1 0 0 1-.99-1V50h18a1 1 0 0 0 1-1v-6.99h2.629l1.15 1.023a2 2 0 0 0-1.771 1.972l-.008 3a2 2 0 0 0 2 2h7v5a1.019 1.019 0 0 1-1.01 1.005Z" class="color000 svgShape"/><path d="M21 24h-2.78l.76-3.8-1.96-.4-.84 4.2h-4.36l-.84-4.2-1.96.4.76 3.8H7a1 1 0 0 0-.976 1.217l1.652 7.433A2.982 2.982 0 0 0 10.6 35h6.8a2.982 2.982 0 0 0 2.928-2.35l1.652-7.433A1 1 0 0 0 21 24Zm-2.628 8.217A.994.994 0 0 1 17.4 33h-6.8a.994.994 0 0 1-.976-.783L8.247 26h11.506Z" class="color000 svgShape"/><path d="M11 28h2v3h-2zM15 28h2v3h-2z" class="color000 svgShape"/></svg></svg>