<svg xmlns="http://www.w3.org/2000/svg" xmlns:svgjs="http://svgjs.com/svgjs" xmlns:xlink="http://www.w3.org/1999/xlink" width="288" height="288"><svg xmlns="http://www.w3.org/2000/svg" width="288" height="288" viewBox="0 0 48 48"><g fill="#fd5538" class="color000 svgShape" data-name="16-Shopping Basket"><path d="M47 21a1 1 0 0 0-1 1V43a3 3 0 0 1-3 3H42a1 1 0 0 0 0 2h1a5 5 0 0 0 5-5V22A1 1 0 0 0 47 21zM5 48H6a1 1 0 0 0 0-2H5a3 3 0 0 1-3-3V22a1 1 0 0 0-2 0V43A5 5 0 0 0 5 48zM10 5A3 3 0 0 0 7 8v4a3 3 0 0 0 6 0V8A3 3 0 0 0 10 5zm1 7a1 1 0 0 1-2 0V8a1 1 0 0 1 2 0zM33 7a1 1 0 0 0 0-2H29a1 1 0 0 0-1 1v8a1 1 0 0 0 1 1h4a1 1 0 0 0 0-2H30V11h3a1 1 0 0 0 0-2H30V7zM20 8a3 3 0 0 0-3-3H15a1 1 0 0 0-1 1v8a1 1 0 0 0 2 0V12.41l2.29 2.3a1 1 0 0 0 1.42 0 1 1 0 0 0 0-1.42L17.38 11A3 3 0 0 0 20 8zM17 9H16V7h1a1 1 0 0 1 0 2zM41 8a3 3 0 0 0-3-3H36a1 1 0 0 0-1 1v8a1 1 0 0 0 2 0V12.41l2.29 2.3a1 1 0 0 0 1.42 0 1 1 0 0 0 0-1.42L38.38 11A3 3 0 0 0 41 8zM38 9H37V7h1a1 1 0 0 1 0 2zM22 5a1 1 0 0 0-1 1v8a1 1 0 0 0 1 1A5 5 0 0 0 22 5zm1 7.83V7.17a3 3 0 0 1 0 5.66zM25 18a1 1 0 0 0 0 2h1a1 1 0 0 0 0-2z" class="color000 svgShape"/><path d="M38,0H10a10,10,0,0,0,0,20h1a1,1,0,0,0,0-2H10A8,8,0,0,1,10,2H38a8,8,0,0,1,0,16H30a1,1,0,0,0,0,2h8A10,10,0,0,0,38,0Z" class="color000 svgShape"/><path d="M8,36v8a1,1,0,0,0,.17.55l2,3A1,1,0,0,0,11,48a.94.94,0,0,0,.55-.17,1,1,0,0,0,.28-1.38L10,43.7V36a2,2,0,0,1,4,0v7a1,1,0,0,0,2,0V20a2,2,0,0,1,4,0V32a1,1,0,0,0,2,0V29a1,1,0,0,1,1-1h2a1,1,0,0,1,1,1v2a1,1,0,0,0,2,0,1,1,0,0,1,1-1h2a1,1,0,0,1,1,1v2a1,1,0,0,0,2,0,1,1,0,0,1,1-1h2a1,1,0,0,1,1,1V43.7l-1.83,2.75a1,1,0,0,0,.28,1.38A.94.94,0,0,0,37,48a1,1,0,0,0,.83-.45l2-3A1,1,0,0,0,40,44V33a3,3,0,0,0-3-3H35a3,3,0,0,0-1.12.22A3,3,0,0,0,31,28H29a3,3,0,0,0-1.12.22A3,3,0,0,0,25,26H23a3,3,0,0,0-1,.18V20a4,4,0,0,0-8,0V32.56A3.91,3.91,0,0,0,12,32,4,4,0,0,0,8,36Z" class="color000 svgShape"/></g></svg></svg>